<?xml version="1.0" encoding="utf-8"?>
<!-- Svg Vector Icons : http://www.onlinewebfonts.com/icon -->
<!DOCTYPE svg PUBLIC "-//W3C//DTD SVG 1.1//EN" "http://www.w3.org/Graphics/SVG/1.1/DTD/svg11.dtd">
<svg xmlns="http://www.w3.org/2000/svg" viewBox="0 0 41.41 42.73"><defs><style>.a{fill:#333}.b{fill:none;stroke:#2e2e2e;stroke-miterlimit:10;stroke-width:2px}</style></defs><title>btn-top</title><path class="a" d="M5.62 33.78v-1.62h7.75v1.62h-2.83v8.85h-2.1v-8.85zm14.89 8.95a5.23 5.23 0 0 1-3.81-1.51 5.55 5.55 0 0 1 0-7.69A5.25 5.25 0 0 1 20.52 32a5.22 5.22 0 0 1 3.8 1.52 5.56 5.56 0 0 1 0 7.69 5.23 5.23 0 0 1-3.81 1.52zm2.31-2.87a4 4 0 0 0 0-5 3 3 0 0 0-2.31-.93 3.06 3.06 0 0 0-2.32.94 3.92 3.92 0 0 0 0 5 3.06 3.06 0 0 0 2.32.94 3 3 0 0 0 2.31-.95zm12.3-2.48a2.72 2.72 0 0 1-1.18.79 5.11 5.11 0 0 1-1.81.29H30.4v4.17h-2.12V32.16h3.86a4 4 0 0 1 2.8.91 2.82 2.82 0 0 1 1 2.14 3.28 3.28 0 0 1-.82 2.17zm-4.72-.54h1.74a1.66 1.66 0 0 0 1.21-.41 1.7 1.7 0 0 0 0-2.24 1.67 1.67 0 0 0-1.21-.41H30.4z"/><path class="b" d="M.71 21.41l20-20 20 20"/></svg>